<?xml version="1.0" standalone="no"?>
<!DOCTYPE svg PUBLIC "-//W3C//DTD SVG 20010904//EN"
 "http://www.w3.org/TR/2001/REC-SVG-20010904/DTD/svg10.dtd">
<svg version="1.0" xmlns="http://www.w3.org/2000/svg"
 width="500.000000pt" height="500.000000pt" viewBox="0 0 500.000000 500.000000"
 preserveAspectRatio="xMidYMid meet">

<g transform="translate(0.000000,500.000000) scale(0.100000,-0.100000)"
fill="#000000" stroke="none">
<path d="M2665 3724 c-11 -20 -35 -44 -57 -55 -43 -22 -48 -38 -17 -46 19 -5
21 -11 17 -55 -3 -26 -13 -57 -22 -67 -13 -14 -14 -21 -6 -26 18 -11 7 -110
-15 -135 -16 -18 -16 -20 -1 -26 9 -3 26 -4 39 -1 12 3 31 -1 41 -9 51 -37
126 -1 140 67 10 49 7 59 -14 59 -13 0 -21 -9 -26 -27 -14 -70 -37 -91 -64
-58 -14 17 -5 84 15 111 9 13 10 24 3 40 -6 12 -8 42 -4 66 6 41 8 43 39 43
25 0 32 4 32 20 0 15 -8 21 -28 23 -28 3 -29 5 -25 55 4 65 -18 75 -47 21z"/>
<path d="M2353 3658 c-33 -16 -57 -69 -49 -109 8 -45 70 -106 111 -111 38 -4
58 -49 33 -74 -20 -21 -58 -10 -58 17 0 10 5 19 10 19 6 0 10 7 10 16 0 13 -7
15 -29 11 -20 -4 -31 -2 -35 8 -3 8 -14 15 -24 15 -16 0 -18 -5 -12 -42 9 -59
24 -83 60 -98 100 -41 206 54 158 143 -20 38 -72 81 -94 78 -46 -5 -63 81 -16
87 28 4 43 -26 19 -40 -26 -14 -20 -31 8 -26 14 3 30 -1 36 -8 6 -8 19 -14 28
-14 18 0 19 22 5 87 -9 44 -105 68 -161 41z"/>
<path d="M2082 3610 c-18 -11 -36 -30 -41 -43 -12 -30 -6 -167 6 -176 6 -3 19
-24 31 -46 36 -72 76 -93 141 -75 51 14 71 42 71 102 0 50 -8 62 -34 52 -12
-5 -15 -14 -10 -39 6 -33 -14 -65 -41 -65 -22 0 -55 50 -55 85 0 35 16 45 76
45 33 0 59 20 45 36 -4 5 -16 30 -25 56 -31 84 -95 110 -164 68z m88 -78 c8
-31 7 -39 -7 -49 -26 -19 -31 -16 -42 25 -14 48 -14 59 2 65 22 8 37 -5 47
-41z"/>
<path d="M2898 3580 c-14 -11 -33 -37 -42 -59 -8 -22 -25 -45 -36 -51 -16 -9
-19 -15 -10 -24 6 -9 8 -34 4 -68 -8 -68 11 -108 60 -132 42 -20 59 -20 95 -1
30 15 66 78 56 95 -11 18 -35 11 -44 -13 -13 -33 -37 -50 -60 -42 -27 8 -36
45 -21 89 14 43 36 46 95 16 22 -11 42 -20 45 -20 8 0 30 99 30 133 0 39 -15
64 -50 82 -40 21 -92 19 -122 -5z m97 -77 c-9 -49 -12 -53 -41 -53 -28 0 -28
0 -12 51 9 32 16 39 36 39 23 0 24 -2 17 -37z"/>
<path d="M1879 3537 c-8 -17 -17 -23 -33 -20 -12 3 -28 -2 -34 -10 -10 -12 -8
-17 12 -30 25 -17 66 -91 66 -120 0 -9 11 -27 25 -41 42 -42 46 -106 6 -106
-25 0 -50 35 -57 82 -4 20 -12 39 -20 42 -21 8 -54 82 -54 121 0 40 -22 48
-42 15 -8 -12 -24 -20 -39 -20 -22 0 -60 -26 -48 -33 2 -1 13 -7 24 -13 25
-13 65 -81 65 -110 0 -12 12 -36 28 -54 69 -81 80 -90 115 -90 40 0 87 33 87
60 0 16 5 18 35 13 21 -3 41 -1 50 7 21 17 19 25 -11 38 -27 13 -70 94 -59
113 4 5 -5 19 -18 30 -31 24 -61 99 -52 128 9 31 -32 29 -46 -2z"/>
<path d="M3150 3483 c0 -40 -30 -100 -55 -109 -8 -4 -15 -17 -15 -31 0 -36
-27 -82 -61 -102 -28 -17 -29 -19 -13 -35 10 -11 25 -15 38 -12 16 4 24 -1 31
-17 6 -12 21 -23 33 -25 20 -3 23 0 17 17 -8 27 27 106 54 120 14 8 21 22 21
40 0 34 39 95 64 99 13 3 17 -2 14 -20 -2 -15 -11 -24 -25 -26 -22 -3 -33 -32
-12 -32 5 0 15 -13 20 -30 10 -28 29 -42 29 -21 0 5 14 23 30 39 37 37 38 71
4 103 -20 19 -35 24 -70 22 -37 -1 -44 1 -44 17 0 18 -27 40 -49 40 -6 0 -11
-17 -11 -37z"/>
<path d="M1434 3347 c-62 -57 -65 -92 -11 -170 20 -29 37 -63 37 -75 0 -13 6
-22 14 -22 8 0 40 -22 71 -49 62 -54 102 -69 136 -51 18 10 29 8 64 -9 49 -24
82 -18 109 21 23 32 20 62 -10 97 -32 38 -44 39 -44 4 0 -14 -7 -34 -16 -44
-18 -20 -11 -41 11 -32 8 3 15 0 15 -6 0 -18 -26 -24 -50 -11 l-21 11 21 29
c11 15 20 43 20 62 0 30 -8 46 -62 127 -10 14 -18 34 -18 44 0 9 -7 17 -17 17
-9 0 -40 23 -69 50 -45 43 -59 50 -92 50 -33 0 -48 -8 -88 -43z m106 -64 c18
-20 39 -51 46 -70 8 -18 21 -33 28 -33 8 0 31 -19 51 -42 38 -45 43 -80 13
-86 -23 -4 -87 64 -95 101 -3 15 -11 27 -18 27 -14 0 -68 52 -92 88 -12 18
-13 25 -3 37 19 23 35 18 70 -22z"/>
<path d="M3396 3378 c-3 -7 -7 -24 -10 -38 -6 -29 -62 -90 -82 -90 -8 0 -14
-9 -14 -20 0 -26 -57 -90 -80 -90 -11 0 -22 -5 -25 -10 -9 -14 13 -40 34 -40
9 0 24 -14 33 -30 9 -17 24 -30 32 -30 8 0 18 -9 21 -20 4 -13 15 -20 31 -20
14 0 24 -6 24 -14 0 -19 27 -46 46 -46 9 0 14 10 14 28 0 27 48 92 68 92 11 0
80 115 88 145 12 48 -47 115 -102 115 -15 0 -23 8 -27 28 -7 31 -45 61 -51 40z
m111 -133 c6 -19 -38 -77 -67 -88 -19 -7 -30 -19 -30 -30 0 -24 -71 -97 -94
-97 -43 0 -1 96 55 125 16 9 29 23 29 32 0 28 52 74 79 71 13 -2 26 -7 28 -13z"/>
<path d="M2355 3223 c-173 -42 -308 -114 -450 -238 -87 -76 -219 -268 -264
-385 -56 -145 -75 -249 -75 -425 -1 -164 14 -299 34 -319 13 -12 8 49 -11 149
-14 75 -20 213 -9 195 5 -8 10 -42 10 -75 0 -40 3 -55 9 -46 7 11 10 7 14 -15
2 -16 5 -3 6 29 1 40 -2 56 -10 51 -7 -4 -10 5 -8 27 1 19 -1 62 -5 96 -16
131 59 361 168 517 22 32 49 70 58 85 10 14 41 50 70 79 60 61 112 95 59 38
-19 -20 -29 -36 -22 -36 11 0 11 -3 0 -17 -13 -16 -12 -17 3 -4 10 7 15 17 12
22 -3 5 3 6 12 2 14 -5 16 -3 11 11 -4 9 -3 15 2 12 12 -8 42 28 44 53 2 31
122 102 239 142 81 28 110 33 223 37 130 4 167 0 318 -37 42 -10 77 -15 77
-12 0 8 -58 30 -98 37 -15 3 -50 11 -77 18 -49 12 -299 19 -340 9z m-748
-1115 c-3 -8 -6 -5 -6 6 -1 11 2 17 5 13 3 -3 4 -12 1 -19z"/>
<path d="M2430 3160 c-11 -8 -7 -9 15 -4 37 8 45 14 19 14 -10 0 -26 -5 -34
-10z"/>
<path d="M2890 3147 c3 -3 47 -29 98 -59 51 -30 90 -57 87 -61 -3 -4 -2 -5 1
-2 11 8 104 -76 97 -87 -3 -6 -1 -8 4 -5 6 4 37 -21 68 -56 44 -48 53 -54 39
-28 -40 73 -199 214 -299 263 -49 25 -105 45 -95 35z"/>
<path d="M2660 3136 c0 -8 140 -59 146 -54 3 3 -26 18 -63 32 -68 26 -83 30
-83 22z"/>
<path d="M2610 3126 c0 -2 7 -7 16 -10 8 -3 12 -2 9 4 -6 10 -25 14 -25 6z"/>
<path d="M2316 3105 c-3 -8 -1 -15 4 -15 13 0 22 18 11 24 -5 3 -11 -1 -15 -9z"/>
<path d="M2188 3059 c-21 -11 -38 -22 -38 -24 0 -5 79 32 89 41 12 11 -18 1
-51 -17z"/>
<path d="M2825 3070 c3 -5 8 -10 11 -10 2 0 4 5 4 10 0 6 -5 10 -11 10 -5 0
-7 -4 -4 -10z"/>
<path d="M2774 3061 c3 -5 16 -11 28 -14 22 -6 22 -5 4 8 -22 17 -40 20 -32 6z"/>
<path d="M2123 3035 c0 -8 4 -15 9 -15 4 0 8 4 8 9 0 6 -4 12 -8 15 -5 3 -9
-1 -9 -9z"/>
<path d="M2831 3036 c2 -2 15 -9 29 -15 24 -11 24 -11 6 3 -16 13 -49 24 -35
12z"/>
<path d="M2080 3000 c-8 -5 -10 -10 -5 -10 6 0 17 5 25 10 8 5 11 10 5 10 -5
0 -17 -5 -25 -10z"/>
<path d="M2904 2995 c11 -8 24 -15 30 -15 5 0 1 7 -10 15 -10 8 -23 14 -29 14
-5 0 -1 -6 9 -14z"/>
<path d="M2315 2925 c-16 -7 -36 -11 -45 -8 -12 4 -12 3 -2 -5 11 -7 7 -11
-15 -17 -15 -5 -32 -7 -36 -6 -5 1 -5 -4 -1 -10 5 -9 2 -10 -9 -6 -10 3 -17 2
-17 -3 0 -5 -18 -19 -40 -31 -22 -13 -40 -27 -40 -32 0 -6 5 -5 13 1 6 5 63
35 125 66 101 51 127 68 105 65 -5 0 -21 -7 -38 -14z"/>
<path d="M3017 2922 c-49 -30 -47 -80 7 -160 46 -66 65 -107 30 -62 -87 111
-182 173 -296 195 -40 7 -86 17 -103 21 -16 4 -83 6 -148 6 -136 -2 -139 -3
-376 -129 -68 -36 -153 -117 -181 -174 -12 -24 -28 -51 -35 -59 -6 -8 -25 -53
-40 -100 -16 -47 -32 -89 -37 -94 -12 -15 -10 -44 4 -48 9 -3 7 -13 -7 -34
-18 -27 -20 -45 -19 -234 2 -197 3 -209 31 -300 17 -52 33 -102 37 -110 5 -13
-4 -14 -58 -12 -58 3 -65 1 -84 -22 l-20 -26 -27 68 c-15 37 -31 76 -36 87 -5
11 -11 31 -14 44 -5 30 -25 53 -25 30 0 -20 42 -141 69 -199 11 -25 21 -59 21
-75 0 -29 53 -124 109 -196 47 -61 119 -71 203 -28 72 37 75 82 16 239 -8 19
-19 44 -25 55 -16 29 -70 164 -81 205 -20 69 -35 217 -34 350 1 207 81 420
198 523 126 111 238 159 421 179 124 14 182 4 287 -48 169 -84 291 -230 355
-424 58 -174 62 -350 17 -612 -20 -113 -31 -150 -66 -219 -29 -58 -44 -100
-47 -139 -5 -51 -3 -59 29 -100 18 -24 45 -47 58 -51 47 -13 104 -9 126 9 44
35 154 235 154 280 0 15 13 66 29 114 51 150 61 218 61 435 0 197 -7 251 -48
378 -31 95 -131 296 -150 303 -7 2 -10 -2 -6 -11 3 -8 1 -18 -5 -22 -14 -8
-14 -35 -1 -35 5 0 7 7 4 15 -8 21 13 19 25 -2 5 -10 5 -26 0 -41 -5 -14 -5
-21 0 -17 12 7 25 -31 15 -46 -4 -7 -3 -9 4 -5 6 4 17 -13 27 -43 9 -27 24
-55 33 -63 15 -11 15 -11 6 2 -13 17 -46 112 -41 117 4 3 57 -121 80 -187 34
-95 46 -209 41 -385 -3 -162 -14 -256 -34 -300 -5 -11 -19 -53 -30 -93 -12
-40 -24 -72 -28 -70 -76 40 -108 50 -150 44 -38 -5 -43 -4 -32 8 23 28 52 201
59 356 l8 155 3 -135 c1 -74 2 -139 1 -144 -3 -18 11 -46 29 -56 33 -18 77 7
101 56 20 42 21 56 16 192 -2 81 -8 156 -12 167 -6 17 -5 17 5 5 9 -12 10 -9
5 15 -4 17 -10 31 -14 33 -5 1 -7 16 -5 32 2 17 -1 30 -6 30 -6 0 -10 7 -10
16 0 27 -51 187 -73 229 -22 43 -76 133 -90 150 -4 6 -33 43 -63 83 -52 68
-96 103 -126 101 -7 0 -25 -8 -41 -17z m3 -47 c-7 -9 -15 -13 -19 -10 -3 3 1
10 9 15 21 14 24 12 10 -5z m50 -9 c0 -2 -8 -10 -17 -17 -16 -13 -17 -12 -4 4
13 16 21 21 21 13z m-735 -16 c-3 -5 -12 -10 -18 -10 -7 0 -6 4 3 10 19 12 23
12 15 0z m789 -6 c3 -8 2 -12 -4 -9 -6 3 -10 10 -10 16 0 14 7 11 14 -7z m-97
-16 c-3 -8 -6 -5 -6 6 -1 11 2 17 5 13 3 -3 4 -12 1 -19z m82 -7 c26 -36 27
-51 3 -51 -28 0 -55 35 -47 59 9 28 20 26 44 -8z m-44 -62 c11 -17 -1 -21 -15
-4 -8 9 -8 15 -2 15 6 0 14 -5 17 -11z m165 -55 c0 -8 4 -14 10 -14 5 0 7 -7
4 -15 -4 -8 -10 -15 -16 -15 -5 0 -6 5 -2 12 5 7 3 8 -6 3 -10 -6 -12 -3 -8
13 3 12 2 22 -2 24 -4 2 -10 14 -14 28 l-7 25 20 -24 c12 -13 21 -29 21 -37z
m-126 30 c3 -8 2 -12 -4 -9 -6 3 -10 10 -10 16 0 14 7 11 14 -7z m66 12 c0 -3
-4 -8 -10 -11 -5 -3 -10 -1 -10 4 0 6 5 11 10 11 6 0 10 -2 10 -4z m28 -53
c10 -31 8 -39 -8 -61 -11 -14 -20 -31 -20 -39 0 -27 -19 -2 -31 39 -6 23 -14
36 -18 30 -4 -6 -13 1 -23 19 -9 16 -13 29 -8 29 5 0 14 -8 19 -17 6 -11 11
-13 11 -5 0 7 4 11 10 7 5 -3 17 3 27 14 25 27 28 26 41 -16z m180 -33 c-2 -7
-10 1 -17 16 -12 27 -11 28 4 12 10 -9 16 -21 13 -28z m-169 -82 c-12 -22 -13
-22 -17 -3 -2 10 1 21 7 23 6 2 12 11 12 20 1 16 2 16 6 0 2 -9 -1 -27 -8 -40z
m59 0 c16 -16 16 -71 0 -66 -18 6 -37 48 -31 64 6 17 15 18 31 2z m-63 -109
c9 -17 15 -33 13 -35 -3 -2 -12 12 -21 31 -21 43 -13 47 8 4z m102 -1 c-3 -8
-6 -5 -6 6 -1 11 2 17 5 13 3 -3 4 -12 1 -19z m63 -74 c0 -17 -5 -20 -29 -16
-20 3 -34 -2 -49 -18 l-21 -22 -11 43 c-7 24 -14 47 -16 51 -3 4 10 2 27 -4
27 -9 33 -8 42 8 10 18 11 17 18 -6 6 -23 7 -22 9 10 l2 35 13 -30 c8 -16 14
-39 15 -51z m-126 -44 c-6 -6 -10 -4 -10 8 0 9 -3 28 -7 42 -5 18 -3 17 10 -8
11 -21 13 -36 7 -42z m-25 -25 c-1 -73 -6 -62 -11 23 -3 34 -1 57 4 50 4 -7 7
-40 7 -73z m151 15 c0 -5 -2 -10 -4 -10 -3 0 -8 5 -11 10 -3 6 -1 10 4 10 6 0
11 -4 11 -10z m-133 -32 c-3 -8 -6 -5 -6 6 -1 11 2 17 5 13 3 -3 4 -12 1 -19z
m118 -28 c0 -36 -18 -51 -29 -25 -8 23 4 67 18 62 6 -2 11 -19 11 -37z m-78
-42 c-3 -8 -6 -5 -6 6 -1 11 2 17 5 13 3 -3 4 -12 1 -19z m10 -50 c-3 -7 -5
-2 -5 12 0 14 2 19 5 13 2 -7 2 -19 0 -25z m40 0 c-3 -7 -5 -2 -5 12 0 14 2
19 5 13 2 -7 2 -19 0 -25z m83 -68 c0 -47 -2 -50 -26 -50 -14 0 -34 -5 -45
-10 -18 -10 -19 -7 -19 38 l0 48 37 0 c20 0 38 5 41 12 8 24 12 11 12 -38z
m-1567 25 c4 -8 2 -17 -3 -20 -6 -4 -10 3 -10 14 0 25 6 27 13 6z m1532 -155
c8 -12 -5 -60 -16 -60 -5 0 -9 16 -9 35 0 33 12 46 25 25z m-28 -92 c-3 -8 -6
-5 -6 6 -1 11 2 17 5 13 3 -3 4 -12 1 -19z m-20 -25 c-3 -10 -5 -4 -5 12 0 17
2 24 5 18 2 -7 2 -21 0 -30z m-1437 -68 c0 -8 -4 -15 -10 -15 -5 0 -7 7 -4 15
4 8 8 15 10 15 2 0 4 -7 4 -15z m59 -130 c0 -5 -4 -3 -9 5 -5 8 -9 22 -9 30 0
16 17 -16 18 -35z m29 -70 c-3 -3 -9 2 -12 12 -6 14 -5 15 5 6 7 -7 10 -15 7
-18z m1279 9 c-3 -3 -12 -4 -19 -1 -8 3 -5 6 6 6 11 1 17 -2 13 -5z m-1417
-14 c-20 -13 -50 -13 -50 0 0 6 15 10 33 10 24 0 28 -3 17 -10z m1510 -21 c27
-11 51 -27 54 -36 6 -13 -60 -147 -108 -221 -32 -48 -73 -56 -143 -27 -32 14
-33 16 -33 74 0 42 8 81 26 127 24 58 32 68 68 84 54 24 78 24 136 -1z m-1465
-5 c19 -5 68 -94 110 -198 20 -51 20 -52 -16 -65 -72 -25 -126 -1 -173 78 -15
25 -36 61 -48 79 -20 32 -20 36 -5 67 11 24 24 35 44 38 46 7 67 7 88 1z
m1206 -191 c-8 -15 -10 -15 -11 -2 0 17 10 32 18 25 2 -3 -1 -13 -7 -23z"/>
<path d="M3178 1493 c-20 -24 -32 -56 -16 -47 8 5 9 2 4 -12 -16 -37 -24 -84
-15 -84 5 0 9 6 9 13 0 8 9 42 21 76 22 68 21 81 -3 54z"/>
<path d="M1759 1492 c6 -12 16 -24 22 -28 8 -4 8 -1 0 14 -6 12 -16 24 -22 28
-8 4 -8 1 0 -14z"/>
<path d="M1820 1424 c0 -5 7 -19 15 -30 8 -10 15 -14 15 -8 0 5 -7 19 -15 30
-8 10 -15 14 -15 8z"/>
<path d="M1971 2923 c-31 -6 -129 -105 -157 -158 -12 -22 -38 -69 -59 -105
-61 -106 -110 -239 -102 -272 3 -10 0 -18 -6 -18 -9 0 -9 -2 -1 -8 14 -9 25
-52 14 -52 -5 0 -10 8 -13 18 -2 9 -7 -10 -12 -43 -10 -72 0 -332 15 -395 19
-79 77 -104 125 -55 22 21 25 33 25 90 0 38 -4 65 -10 65 -7 0 -9 -15 -6 -37
l5 -38 -11 39 c-7 25 -7 41 -1 45 6 3 13 56 16 116 9 182 34 309 78 403 21 46
39 87 39 91 0 13 80 133 121 182 37 45 47 77 33 113 -3 9 -13 16 -20 16 -12 0
-11 -5 3 -27 17 -28 17 -28 -3 -10 -11 9 -26 17 -34 17 -10 0 -10 3 0 15 13
16 10 17 -39 8z m39 -81 c0 -15 -59 -72 -75 -72 -14 0 -14 3 0 29 23 45 75 74
75 43z m-133 -39 c-48 -67 -130 -225 -158 -305 -25 -71 -43 -92 -29 -35 17 72
66 174 130 272 8 13 29 44 45 69 17 25 34 45 38 46 5 0 -7 -21 -26 -47z m8
-63 c8 -26 -30 -95 -62 -109 -35 -16 -36 -14 -16 17 11 15 27 46 38 70 20 46
30 52 40 22z m35 -40 c-6 -11 -15 -20 -21 -20 -6 0 -8 -3 -5 -8 2 -4 -1 -18
-8 -31 -8 -15 -16 -20 -20 -13 -4 6 2 28 13 49 11 21 20 31 21 23 0 -12 3 -11
11 3 14 24 22 22 9 -3z m-90 -84 c0 -2 -12 -11 -27 -20 l-28 -17 24 20 c23 21
31 25 31 17z m-5 -93 c-10 -17 -24 -34 -33 -38 -24 -9 -7 66 20 89 22 18 23
18 27 0 2 -10 -5 -33 -14 -51z m-59 -45 c14 -28 15 -31 2 -20 -14 11 -31 52
-22 52 2 0 11 -15 20 -32z m-26 -54 c-13 -32 -13 -44 0 -44 5 0 7 7 4 15 -4 8
-1 15 5 15 6 0 8 6 5 14 -4 11 0 13 16 9 18 -5 20 -10 14 -32 -4 -14 -7 -36
-7 -47 1 -22 1 -22 -19 -2 -12 12 -28 18 -39 15 -12 -3 -19 0 -19 10 0 8 5 11
10 8 6 -3 11 2 11 12 1 10 3 27 4 38 1 11 3 29 4 40 2 19 3 18 11 -3 6 -13 6
-32 0 -48z m15 -190 c-5 -29 -9 -33 -21 -24 -17 15 -18 48 -3 87 l11 28 10
-28 c6 -15 7 -44 3 -63z m-98 24 c-3 -7 -5 -2 -5 12 0 14 2 19 5 13 2 -7 2
-19 0 -25z m34 -94 c15 -21 40 -25 51 -9 4 6 8 -18 8 -51 0 -60 -1 -61 -25
-56 -14 2 -31 0 -38 -6 -9 -8 -12 0 -13 36 0 26 -3 74 -7 107 -4 37 -3 48 2
29 4 -17 14 -40 22 -50z m86 -1 c-3 -10 -5 -2 -5 17 0 19 2 27 5 18 2 -10 2
-26 0 -35z m-27 -193 c0 -32 -14 -40 -24 -14 -10 27 -7 44 9 44 10 0 15 -10
15 -30z m-45 -65 c-4 -31 -9 -54 -12 -51 -3 2 -1 30 2 61 4 31 9 54 12 51 3
-2 1 -30 -2 -61z"/>
<path d="M1700 2116 c0 -8 4 -17 9 -20 5 -4 7 3 4 14 -6 23 -13 26 -13 6z"/>
<path d="M1716 2651 c-21 -41 -37 -81 -31 -81 8 0 57 102 51 107 -2 3 -12 -9
-20 -26z"/>
<path d="M2584 2611 c-37 -23 -99 -94 -125 -143 -10 -20 -23 -39 -29 -43 -5
-3 -29 7 -52 23 -102 69 -131 75 -178 36 -40 -34 -62 -79 -90 -182 -12 -45
-31 -93 -41 -105 -17 -20 -17 -19 1 18 11 22 23 55 26 74 l7 34 -46 -32 c-57
-39 -77 -66 -77 -107 0 -33 25 -70 128 -183 l48 -54 66 62 c85 79 121 136 163
256 33 95 99 219 131 246 9 7 4 -4 -11 -26 -71 -105 -123 -253 -140 -402 -5
-42 -11 -63 -20 -63 -8 0 -23 -12 -35 -27 -18 -23 -82 -73 -93 -73 -2 0 27 31
64 70 60 61 69 75 69 106 l0 37 -22 -29 c-38 -51 -102 -115 -137 -136 l-34
-21 23 -19 c12 -10 18 -18 13 -18 -5 0 -31 22 -57 49 l-49 49 -48 -30 c-57
-35 -99 -81 -99 -110 0 -65 77 -139 164 -159 65 -14 123 0 170 41 l34 30 5
-32 c3 -18 11 -68 18 -110 14 -96 29 -112 85 -97 51 14 142 66 154 88 6 12 5
24 -4 37 -27 39 -58 155 -53 195 10 78 44 88 117 34 67 -49 99 -53 154 -21 61
36 75 77 50 147 -18 48 -18 51 -1 60 9 6 17 18 17 28 0 9 7 26 15 37 8 10 15
38 15 61 0 23 5 45 10 48 6 3 10 19 10 35 0 33 6 38 120 98 68 37 75 43 73 69
-2 30 -52 83 -79 83 -24 0 -54 -19 -54 -35 0 -9 -42 -36 -100 -65 -56 -28 -98
-55 -95 -60 3 -5 -5 -14 -17 -20 -23 -11 -23 -11 -3 5 19 16 19 17 -15 10 -19
-4 -61 -21 -94 -37 l-59 -30 7 24 c5 17 46 281 46 296 0 6 -18 0 -46 -17z
m-24 -55 c0 -2 -8 -10 -17 -17 -16 -13 -17 -12 -4 4 13 16 21 21 21 13z m515
-85 c-20 -19 -330 -179 -338 -174 -5 3 -4 10 2 16 19 19 306 166 326 167 12 0
15 -3 10 -9z m-799 -82 c8 -14 -11 -33 -25 -25 -11 7 -4 36 9 36 5 0 12 -5 16
-11z m409 -49 c-3 -5 -12 -10 -18 -10 -7 0 -6 4 3 10 19 12 23 12 15 0z m-465
-26 c0 -16 -16 -19 -25 -4 -8 13 4 32 16 25 5 -4 9 -13 9 -21z m670 1 c0 -6
-97 -55 -107 -55 -4 1 17 14 47 30 61 32 60 32 60 25z m-233 -29 c1 -1 -18 -9
-42 -17 -43 -16 -46 -13 -22 18 7 10 49 9 64 -1z m223 -16 c-11 -20 -30 -28
-30 -12 0 11 22 32 32 32 5 0 4 -9 -2 -20z m-135 -10 c3 -5 -8 -16 -25 -25
-31 -16 -39 -38 -19 -51 8 -4 -1 -14 -22 -25 -44 -23 -44 -23 -57 6 -14 30
-16 88 -3 67 7 -11 18 -9 57 12 56 28 61 30 69 16z m-85 -10 c-8 -5 -19 -10
-25 -10 -5 0 -3 5 5 10 8 5 20 10 25 10 6 0 3 -5 -5 -10z m197 -40 c4 -12 3
-13 -5 -1 -6 8 -17 11 -27 8 -10 -4 -14 -3 -10 4 9 14 37 7 42 -11z m-8 -70
c-20 -38 -99 -95 -99 -71 0 5 6 12 13 14 6 3 -1 6 -18 6 -26 1 -21 6 45 46 41
24 76 45 77 45 2 0 -7 -18 -18 -40z m-109 -5 c-7 -8 -17 -12 -23 -8 -6 4 -3 9
9 14 27 11 28 11 14 -6z m-144 -36 c10 -11 14 -20 9 -19 -23 5 -35 -1 -35 -16
0 -10 6 -14 15 -10 29 11 14 -5 -31 -34 -37 -23 -51 -27 -66 -19 -19 10 -53
-5 -44 -20 3 -4 -4 -8 -15 -8 -22 -2 -22 -2 -7 34 21 49 78 102 61 56 -5 -13
-2 -15 11 -10 9 4 15 3 12 -2 -3 -5 1 -14 9 -21 15 -12 20 -4 16 23 0 4 4 7
10 7 5 0 9 8 7 18 -3 19 9 42 21 42 4 0 16 -9 27 -21z m112 -65 c2 -1 -3 -4
-11 -7 -7 -3 -20 8 -31 27 l-18 31 29 -25 c15 -14 29 -26 31 -26z m92 6 c0 -5
-2 -10 -4 -10 -3 0 -8 5 -11 10 -3 6 -1 10 4 10 6 0 11 -4 11 -10z m-6 -42
c35 -50 7 -108 -51 -108 -38 0 -83 31 -83 57 0 20 19 16 52 -12 27 -23 78 -35
78 -17 0 4 -14 15 -30 24 -29 16 -41 54 -23 71 13 14 42 6 57 -15z m34 -3 c-3
-3 -9 2 -12 12 -6 14 -5 15 5 6 7 -7 10 -15 7 -18z m-481 -17 c-3 -7 -5 -2 -5
12 0 14 2 19 5 13 2 -7 2 -19 0 -25z m348 4 c-3 -3 -11 0 -18 7 -9 10 -8 11 6
5 10 -3 15 -9 12 -12z m-78 -28 c-3 -3 -12 -4 -19 -1 -8 3 -5 6 6 6 11 1 17
-2 13 -5z m45 -45 c18 -17 24 -27 13 -21 -21 11 -63 52 -52 52 3 0 21 -14 39
-31z m65 -35 c-3 -3 -12 -4 -19 -1 -8 3 -5 6 6 6 11 1 17 -2 13 -5z m-379 -74
c-3 -43 -18 -56 -18 -16 0 25 9 56 16 56 3 0 3 -18 2 -40z"/>
<path d="M2647 2204 c-16 -9 -27 -18 -24 -20 7 -7 57 18 57 28 0 10 1 10 -33
-8z"/>
<path d="M2780 2100 c0 -5 5 -10 10 -10 6 0 10 5 10 10 0 6 -4 10 -10 10 -5 0
-10 -4 -10 -10z"/>
<path d="M2455 2030 c-4 -6 5 -10 20 -10 15 0 24 4 20 10 -3 6 -12 10 -20 10
-8 0 -17 -4 -20 -10z"/>
<path d="M3482 1965 c0 -16 2 -22 5 -12 2 9 2 23 0 30 -3 6 -5 -1 -5 -18z"/>
<path d="M3470 1890 c0 -16 -4 -30 -8 -30 -5 0 -9 -21 -9 -47 0 -36 2 -41 9
-24 11 31 22 131 14 131 -3 0 -6 -13 -6 -30z"/>
<path d="M3411 1729 c-6 -18 -9 -34 -7 -36 2 -2 9 10 15 28 6 18 9 34 7 36 -2
2 -9 -10 -15 -28z"/>
<path d="M1700 1735 c1 -6 7 -21 16 -35 l15 -25 -7 25 c-7 26 -24 52 -24 35z"/>
</g>
</svg>
